<svg width="5" height="7" viewBox="0 0 5 7" fill="none" xmlns="http://www.w3.org/2000/svg">
<path d="M0.879679 0.0699439L0.529027 0.42062C0.482201 0.467348 0.458862 0.521175 0.458862 0.582029C0.458862 0.642735 0.482201 0.696538 0.529027 0.743266L3.28558 3.49996L0.529101 6.25654C0.482275 6.30329 0.458936 6.35709 0.458936 6.41787C0.458936 6.47868 0.482275 6.53248 0.529101 6.57921L0.879778 6.92984C0.926505 6.97666 0.980308 7 1.04111 7C1.10187 7 1.15567 6.97659 1.2024 6.92984L4.47101 3.6613C4.51776 3.61457 4.54112 3.56074 4.54112 3.49996C4.54112 3.43918 4.51776 3.38545 4.47101 3.33875L1.2024 0.0699439C1.15565 0.0232162 1.10184 4.48732e-07 1.04111 4.51386e-07C0.980308 4.54044e-07 0.926505 0.0232162 0.879679 0.0699439Z" fill="black"/>
</svg>
