<svg width="12" height="11" viewBox="0 0 12 11" fill="none" xmlns="http://www.w3.org/2000/svg">
<g clip-path="url(#clip0_175_512)">
<path d="M12.0007 4.37847C11.7344 4.69036 11.3867 4.91527 11.0735 5.17318C10.3844 5.74297 9.68901 6.30377 8.9905 6.86157C8.92159 6.91855 8.90592 6.96653 8.92785 7.0505C9.23169 8.19908 9.53239 9.35066 9.8331 10.5022C9.85189 10.5712 9.87382 10.6402 9.86129 10.7122C9.81743 10.9611 9.54492 11.078 9.31313 10.9401C8.94351 10.7242 8.58016 10.5022 8.21368 10.2803C7.50577 9.85748 6.79786 9.43463 6.09308 9.00879C6.02417 8.9668 5.97718 8.9698 5.90827 9.00879C4.85581 9.64156 3.80021 10.2743 2.74774 10.9041C2.68509 10.9431 2.62245 10.9821 2.54727 10.9941C2.29042 11.0331 2.08682 10.8231 2.14946 10.5772C2.41258 9.56658 2.6757 8.55295 2.94195 7.53932C2.9858 7.37138 3.02339 7.20344 3.0735 7.0415C3.09856 6.96353 3.07977 6.92155 3.01712 6.87056C2.06802 6.10284 1.12206 5.33512 0.176088 4.5674C0.0413972 4.45944 -0.0369113 4.33948 0.0194708 4.16855C0.0695883 4.0126 0.19175 3.94363 0.401616 3.92863C1.24422 3.87465 2.08368 3.81467 2.92628 3.75769C3.31156 3.7307 3.69684 3.70371 4.08212 3.68572C4.17922 3.67972 4.22307 3.64674 4.25753 3.56277C4.71798 2.45917 5.18157 1.35557 5.64829 0.254968C5.7266 0.0720349 5.8237 6.10352e-05 6.00224 6.10352e-05C6.18079 6.10352e-05 6.27789 0.0720349 6.3562 0.254968C6.82292 1.36157 7.28964 2.46516 7.75322 3.57176C7.78455 3.64973 7.82527 3.67672 7.91297 3.68272C8.884 3.7427 9.85189 3.80868 10.8229 3.87465C11.0672 3.88965 11.3147 3.91664 11.559 3.91964C11.7658 3.92263 11.9161 3.99461 12.0038 4.17454C12.0007 4.24352 12.0007 4.30949 12.0007 4.37847Z" fill="white"/>
</g>
<defs>
<clipPath id="clip0_175_512">
<rect width="12" height="11" fill="white"/>
</clipPath>
</defs>
</svg>
