<svg width="13" height="13" viewBox="0 0 13 13" fill="none" xmlns="http://www.w3.org/2000/svg">
<g clip-path="url(#clip0_173_234)">
<path d="M5.49081 0.129898L4.8396 0.781155C4.75263 0.867934 4.70929 0.967899 4.70929 1.08091C4.70929 1.19365 4.75263 1.29357 4.8396 1.38035L9.9589 6.49993L4.83973 11.6193C4.75277 11.7061 4.70943 11.806 4.70943 11.9189C4.70943 12.0318 4.75277 12.1317 4.83973 12.2185L5.49099 12.8697C5.57777 12.9567 5.67769 13 5.79061 13C5.90344 13 6.00336 12.9565 6.09014 12.8697L12.1604 6.79955C12.2472 6.71277 12.2906 6.61281 12.2906 6.49993C12.2906 6.38706 12.2472 6.28727 12.1604 6.20054L6.09014 0.129898C6.00332 0.0431184 5.9034 2.80883e-06 5.79061 2.81376e-06C5.67769 2.81869e-06 5.57777 0.0431184 5.49081 0.129898Z" fill="black"/>
</g>
<defs>
<clipPath id="clip0_173_234">
<rect width="13" height="13" fill="white" transform="translate(0 13) rotate(-90)"/>
</clipPath>
</defs>
</svg>
